<?xml version="1.0" standalone="no"?><!DOCTYPE svg PUBLIC "-//W3C//DTD SVG 1.1//EN" "http://www.w3.org/Graphics/SVG/1.1/DTD/svg11.dtd"><svg t="1584759310204" class="icon" viewBox="0 0 1024 1024" version="1.1" xmlns="http://www.w3.org/2000/svg" p-id="6268" xmlns:xlink="http://www.w3.org/1999/xlink" width="128" height="128"><defs><style type="text/css"></style></defs><path d="M943.798 653.746c-8.204-7.333-19.016-11.374-30.437-11.374-14.296 0-27.943 6.08-37.444 16.681-91.716 106.856-224.395 168.194-363.925 168.194-140.53 0-273.215-61.351-364.031-168.317-9.165-10.763-22.292-16.942-36.014-16.942-11.251 0-22.12 4.175-30.606 11.759-10.123 8.6-16.111 20.257-16.981 32.942-0.847 12.384 3.298 24.35 11.671 33.693 110.401 128.613 269.694 202.321 437.12 202.321 168.465 0 327.328-73.28 435.855-201.055 17.151-20.15 14.863-49.969-5.208-67.902zM786.373 395.424c44.518 0 80.734-37.071 80.734-82.637V192.105c0-44.798-36.972-82.646-80.734-82.646-43.766 0-80.734 37.848-80.734 82.646v120.681c0 44.793 36.968 82.638 80.734 82.638zM238.467 395.424c43.771 0 80.746-37.845 80.746-82.637V192.105c0-44.798-36.975-82.646-80.746-82.646-43.761 0-80.731 37.848-80.731 82.646v120.681c-0.001 44.793 36.97 82.638 80.731 82.638z" fill="#ffffff" p-id="6269"></path></svg>